<svg width="20" height="20" viewBox="0 0 20 20" fill="none" xmlns="http://www.w3.org/2000/svg">
<g clip-path="url(#clip0_392_2036)">
<path d="M15.2907 17.5467C14.0443 18.1565 12.4991 18.4615 10.6547 18.4615C8.93 18.4615 7.35849 18.1686 5.93976 17.5831C4.52102 16.9974 3.4371 16.0914 2.68743 14.8649C1.93776 13.6381 1.56273 12.176 1.56273 10.478C1.56273 8.85637 1.93776 7.33727 2.68743 5.9198C3.4371 4.50282 4.4931 3.41469 5.85518 2.65584C7.21763 1.89698 8.72212 1.51751 10.3698 1.51751C11.8129 1.51751 13.1311 1.81914 14.3243 2.42188C15.5176 3.02486 16.4149 3.8289 17.0169 4.83355C17.619 5.83841 17.9198 6.91947 17.9198 8.07698C17.9198 9.06788 17.6856 10.0295 17.2176 10.9615C16.7493 11.8936 16.1141 12.6368 15.3118 13.1913C14.7061 13.614 14.217 13.8252 13.8436 13.8252C13.6393 13.8252 13.4653 13.7578 13.3209 13.6225C13.1765 13.4875 13.1047 13.3264 13.1047 13.1393C13.1047 13.0354 13.2101 12.4984 13.4215 11.5281L14.9419 4.55302H13.0517L12.6926 6.1642C12.2916 5.51984 11.8129 5.03988 11.2567 4.72453C10.7006 4.40922 10.1161 4.25143 9.50371 4.25143C8.70139 4.25143 7.87392 4.52865 7.02216 5.08314C6.17037 5.63759 5.45743 6.46747 4.88371 7.57265C4.31004 8.67808 4.02314 9.78159 4.02314 10.8835C4.02314 11.7774 4.20788 12.5987 4.57771 13.3472C4.94714 14.0956 5.42747 14.6501 6.01914 15.0104C6.61041 15.3707 7.21922 15.5509 7.846 15.5509C8.41612 15.5509 8.98465 15.3934 9.55118 15.0778C10.1177 14.7627 10.63 14.3449 11.0876 13.8252C11.1299 14.248 11.1969 14.546 11.2883 14.7191C11.4291 14.9896 11.6489 15.1975 11.9482 15.343C12.2474 15.4885 12.64 15.5613 13.1259 15.5613C14.6463 15.5613 16.0471 14.8613 17.3286 13.4614C18.7649 11.9023 19.4826 10.118 19.4826 8.10796C19.4826 6.70139 19.1411 5.39845 18.4584 4.19959C17.6557 2.80649 16.5594 1.75857 15.169 1.05506C13.7786 0.351755 12.2107 0 10.4648 0C8.21184 0 6.29522 0.498898 4.71494 1.49665C3.13429 2.49469 1.91465 3.93273 1.05604 5.81073C0.351877 7.34241 0 8.95359 0 10.6445C0 12.162 0.295633 13.5758 0.886857 14.8854C1.35845 15.918 2.05902 16.8311 2.98824 17.6247C3.9178 18.4182 5.04208 19.0124 6.36224 19.4074C7.68204 19.8025 9.12351 20 10.6866 20C12.383 20 13.8332 19.7798 15.0369 19.3398C16.241 18.8996 17.2791 18.302 18.152 17.5467C19.0249 16.7913 19.6409 16.0498 20 15.3221H18.0889C17.4693 16.1953 16.5366 16.9369 15.2907 17.5467ZM11.7107 10.8886C11.4574 11.5922 11.1314 12.1724 10.7341 12.6299C10.3363 13.0872 9.91898 13.4321 9.48253 13.6641C9.04608 13.8964 8.63073 14.0123 8.23657 14.0123C7.64535 14.0123 7.12069 13.7491 6.6631 13.2225C6.20547 12.6959 5.97686 11.9579 5.97686 11.0083C5.97686 10.4122 6.08935 9.75739 6.31478 9.04347C6.5398 8.32984 6.83902 7.72327 7.21245 7.22441C7.58547 6.72547 7.9709 6.36331 8.36865 6.13812C8.76641 5.91294 9.19053 5.80033 9.64094 5.80033C10.324 5.80033 10.9029 6.06029 11.378 6.58C11.8532 7.09971 12.091 7.83086 12.091 8.77335C12.0909 9.48016 11.9641 10.1853 11.7107 10.8886Z" fill="black"/>
</g>
<defs>
<clipPath id="clip0_392_2036">
<rect width="20" height="20" fill="white"/>
</clipPath>
</defs>
</svg>
