<svg width="20" height="20" viewBox="0 0 20 20" fill="none" xmlns="http://www.w3.org/2000/svg">
<path d="M15.3758 13.0236L15.3759 13.0236C15.582 12.9077 15.8206 12.8623 16.0552 12.8945C16.2898 12.9267 16.5071 13.0346 16.6741 13.2015L16.6744 13.2019L19.1831 15.7046L19.1832 15.7047C19.2837 15.8049 19.3634 15.9238 19.4177 16.0547C19.4721 16.1855 19.5 16.3256 19.5 16.4671C19.5 16.6087 19.4721 16.7488 19.4177 16.8796C19.3634 17.0104 19.2837 17.1294 19.1832 17.2296L19.1831 17.2297L17.9945 18.4155C16.8091 19.5974 14.9781 19.8464 13.4904 18.9988C13.4902 18.9987 13.49 18.9985 13.4897 18.9984L13.378 18.9343L13.377 18.9338C8.52893 16.1701 4.47417 12.2102 1.6015 7.43385L1.03033 6.48415L1.03029 6.48408C0.603376 5.77453 0.426568 4.9431 0.527828 4.12194C0.629082 3.30084 1.0026 2.53688 1.58924 1.95158C1.58928 1.95154 1.58932 1.9515 1.58936 1.95146L2.72759 0.816727L2.7278 0.816516C2.82826 0.716248 2.9476 0.636645 3.07903 0.582313C3.21047 0.52798 3.35139 0.5 3.49373 0.5C3.63608 0.5 3.777 0.52798 3.90844 0.582313C4.03987 0.636645 4.15921 0.716248 4.25967 0.816516L4.25975 0.816603L6.76685 3.31776L6.76694 3.31785C6.93402 3.48445 7.04169 3.70085 7.07372 3.93393C7.10576 4.16701 7.06046 4.40421 6.94461 4.60933L6.9446 4.60935L6.00223 6.27812L6.00202 6.27851C5.83551 6.57398 5.77036 6.91577 5.81662 7.25176C5.86287 7.58773 6.01795 7.89922 6.25798 8.13881L6.25807 8.1389L11.8409 13.7085C11.841 13.7086 11.841 13.7086 11.841 13.7086C12.0811 13.9482 12.393 14.1027 12.7291 14.1488C13.0652 14.1948 13.4072 14.1299 13.703 13.9638L13.7031 13.9637L15.3758 13.0236ZM2.88802 0.120237C2.69599 0.199616 2.52152 0.315963 2.37458 0.46263L6.6112 7.78493C6.44838 7.6224 6.34329 7.41122 6.31195 7.18357C6.2806 6.95591 6.32474 6.72428 6.43761 6.52398L7.37997 4.85521C7.5496 4.55487 7.61601 4.20739 7.56907 3.86584C7.52212 3.5243 7.36439 3.20748 7.11998 2.96378L4.61289 0.46263C4.46594 0.315963 4.29147 0.199616 4.09945 0.120237C3.90742 0.0408569 3.70159 0 3.49373 0C3.28587 0 3.08005 0.0408569 2.88802 0.120237Z" fill="black" stroke="black"/>
</svg>
